<svg id="Layer_1" data-name="Layer 1" xmlns="http://www.w3.org/2000/svg" viewBox="0 0 400 400"><defs><style>.cls-1{fill:#104a55;}.cls-2{fill:#fff;}</style></defs><title>alarm-icon</title><circle class="cls-1" cx="200" cy="200" r="171.7"/><path class="cls-2" d="M200,293.79c15.63,0,28.3-11.89,28.3-26.56H171.7C171.7,281.9,184.37,293.79,200,293.79Z"/><path class="cls-2" d="M274.31,243.23s-21.94-12-21.94-68.32c0-41-27.73-50.37-42.83-52.43v-6.73a9.54,9.54,0,1,0-19.08,0v6.73c-15.1,2.06-42.83,11.42-42.83,52.43,0,56.35-21.94,68.32-21.94,68.32s-5.24,2-5.24,7v7.48h159.1v-7.48C279.55,245.26,274.31,243.23,274.31,243.23Z"/></svg>