<svg id="Layer_1" data-name="Layer 1" xmlns="http://www.w3.org/2000/svg" viewBox="0 0 400 400"><defs><style>.cls-1{fill:#fff;}</style></defs><title>calendar-icon</title><path class="cls-1" d="M343.62,61.47h-38.9V35.81a12.48,12.48,0,1,0-25,0V61.47H120.24V35.81a12.48,12.48,0,1,0-25,0V61.47H56.38A28.13,28.13,0,0,0,28.29,89.56v259a28.13,28.13,0,0,0,28.09,28.09H343.62a28.13,28.13,0,0,0,28.09-28.09v-259A28.13,28.13,0,0,0,343.62,61.47ZM56.38,74h38.9v29.82a12.48,12.48,0,1,0,25,0V74H279.76v29.82a12.48,12.48,0,1,0,25,0V74h38.9a15.62,15.62,0,0,1,15.6,15.61v46.81H40.78V89.56A15.62,15.62,0,0,1,56.38,74ZM343.62,364.19H56.38a15.62,15.62,0,0,1-15.6-15.6V148.85H359.22V348.59A15.62,15.62,0,0,1,343.62,364.19Z"/><rect class="cls-1" x="131.17" y="190.46" width="24.27" height="24.27"/><rect class="cls-1" x="187.86" y="190.46" width="24.27" height="24.27"/><rect class="cls-1" x="244.56" y="190.46" width="24.27" height="24.27"/><rect class="cls-1" x="301.25" y="190.46" width="24.27" height="24.27"/><rect class="cls-1" x="74.48" y="243.52" width="24.27" height="24.27"/><rect class="cls-1" x="131.17" y="243.52" width="24.27" height="24.27"/><rect class="cls-1" x="187.86" y="243.52" width="24.27" height="24.27"/><rect class="cls-1" x="244.56" y="243.52" width="24.27" height="24.27"/><rect class="cls-1" x="301.25" y="243.52" width="24.27" height="24.27"/><rect class="cls-1" x="74.48" y="296.57" width="24.27" height="24.27"/><rect class="cls-1" x="131.17" y="296.57" width="24.27" height="24.27"/><rect class="cls-1" x="187.86" y="296.57" width="24.27" height="24.27"/><rect class="cls-1" x="244.56" y="296.57" width="24.27" height="24.27"/><rect class="cls-1" x="301.25" y="296.57" width="24.27" height="24.27"/></svg>