<svg id="Layer_1" data-name="Layer 1" xmlns="http://www.w3.org/2000/svg" viewBox="0 0 250 250"><defs><style>.cls-1{fill:#dbac3a;}.cls-2{fill:#fff;}</style></defs><title>calendar-circle</title><circle class="cls-1" cx="125" cy="125" r="106.69"/><path class="cls-2" d="M178.1,69.3H163.72V59.81a4.62,4.62,0,1,0-9.23,0V69.3h-59V59.81a4.62,4.62,0,1,0-9.23,0V69.3H71.9A10.39,10.39,0,0,0,61.52,79.68v95.76A10.4,10.4,0,0,0,71.9,185.83H178.1a10.4,10.4,0,0,0,10.38-10.39V79.68A10.39,10.39,0,0,0,178.1,69.3ZM71.9,73.91H86.28v11a4.62,4.62,0,0,0,9.23,0v-11h59v11a4.62,4.62,0,0,0,9.23,0v-11H178.1a5.77,5.77,0,0,1,5.76,5.77V97H66.14V79.68A5.77,5.77,0,0,1,71.9,73.91Zm106.2,107.3H71.9a5.76,5.76,0,0,1-5.76-5.77V101.6H183.86v73.84A5.76,5.76,0,0,1,178.1,181.21Z"/><rect class="cls-2" x="99.55" y="116.99" width="8.97" height="8.97"/><rect class="cls-2" x="120.51" y="116.99" width="8.97" height="8.97"/><rect class="cls-2" x="141.47" y="116.99" width="8.97" height="8.97"/><rect class="cls-2" x="162.43" y="116.99" width="8.97" height="8.97"/><rect class="cls-2" x="78.59" y="136.6" width="8.97" height="8.97"/><rect class="cls-2" x="99.55" y="136.6" width="8.97" height="8.97"/><rect class="cls-2" x="120.51" y="136.6" width="8.97" height="8.97"/><rect class="cls-2" x="141.47" y="136.6" width="8.97" height="8.97"/><rect class="cls-2" x="162.43" y="136.6" width="8.97" height="8.97"/><rect class="cls-2" x="78.59" y="156.21" width="8.97" height="8.97"/><rect class="cls-2" x="99.55" y="156.21" width="8.97" height="8.97"/><rect class="cls-2" x="120.51" y="156.21" width="8.97" height="8.97"/><rect class="cls-2" x="141.47" y="156.21" width="8.97" height="8.97"/><rect class="cls-2" x="162.43" y="156.21" width="8.97" height="8.97"/></svg>