<svg id="Layer_1" data-name="Layer 1" xmlns="http://www.w3.org/2000/svg" viewBox="0 0 400 400"><defs><style>.cls-1{fill:#fff;}</style></defs><title>chat-icon</title><path class="cls-1" d="M330.93,108.32H329a73.45,73.45,0,0,0-68.85-48.09H81.31A73.4,73.4,0,0,0,8,133.54v61.15A73.4,73.4,0,0,0,81.31,268H118v65.73a6,6,0,0,0,10,4.55l66.33-57.81h32L292,337.7a6,6,0,0,0,10-4.55V280.48h28.94A61.14,61.14,0,0,0,392,219.41v-50A61.14,61.14,0,0,0,330.93,108.32ZM176.68,279.89l-46.57,40.59V262a6,6,0,0,0-6-6H81.31a61.32,61.32,0,0,1-61.25-61.25V133.54A61.32,61.32,0,0,1,81.31,72.29H260.13a61.41,61.41,0,0,1,61.25,61.25v61.15a61.32,61.32,0,0,1-61.25,61.25H206.42a6,6,0,0,0-4,1.49Z"/></svg>