<svg id="Layer_1" data-name="Layer 1" xmlns="http://www.w3.org/2000/svg" viewBox="0 0 250 250"><defs><style>.cls-1{fill:#b4598c;}.cls-2{fill:#fff;}</style></defs><title>chat-circle</title><circle class="cls-1" cx="125" cy="125" r="106.69"/><path class="cls-2" d="M177.37,95h-.71a26.91,26.91,0,0,0-25.21-17.61H86a26.87,26.87,0,0,0-26.83,26.84v22.39A26.87,26.87,0,0,0,86,153.41H99.44v24.07a2.23,2.23,0,0,0,1.29,2,2.31,2.31,0,0,0,.92.2,2.2,2.2,0,0,0,1.45-.55L127.38,158h11.7l24,21a2.2,2.2,0,0,0,2.36.34,2.2,2.2,0,0,0,1.29-2V158h10.6a22.38,22.38,0,0,0,22.36-22.36V117.31A22.38,22.38,0,0,0,177.37,95ZM120.9,157.77l-17,14.85V151.21a2.21,2.21,0,0,0-2.21-2.21H86a22.45,22.45,0,0,1-22.42-22.42V104.19A22.45,22.45,0,0,1,86,81.77h65.46a22.51,22.51,0,0,1,22.43,22.42v22.39A22.45,22.45,0,0,1,151.45,149H131.79a2.21,2.21,0,0,0-1.45.54Z"/></svg>