<svg id="Layer_1" data-name="Layer 1" xmlns="http://www.w3.org/2000/svg" viewBox="0 0 250 250"><defs><style>.cls-1{fill:#aeb9d0;}.cls-2{fill:#fff;}</style></defs><title>diary-circle</title><circle class="cls-1" cx="125" cy="125" r="106.69"/><path class="cls-2" d="M170.66,61.34h-80A13.53,13.53,0,0,0,77.13,74.86V90.44H68.2a2.39,2.39,0,1,0,0,4.77h8.93v16.68H68.2a2.39,2.39,0,1,0,0,4.77h8.93v16.68H68.2a2.39,2.39,0,1,0,0,4.77h8.93v16.67H68.2a2.39,2.39,0,0,0,0,4.78h8.93v17.31c0,6.5,6.06,11.79,13.52,11.79h80a13.54,13.54,0,0,0,13.53-13.52V74.86A13.54,13.54,0,0,0,170.66,61.34ZM131.3,66.11h27.28v49.61l-12.3-8.32a2.37,2.37,0,0,0-2.67,0l-12.31,8.32Zm48.11,109a8.75,8.75,0,0,1-8.75,8.75h-80c-4.74,0-8.75-3.21-8.75-7V159.56h8.93a2.39,2.39,0,0,0,0-4.78H81.9V138.11h8.93a2.39,2.39,0,0,0,0-4.77H81.9V116.66h8.93a2.39,2.39,0,0,0,0-4.77H81.9V95.21h8.93a2.39,2.39,0,0,0,0-4.77H81.9V74.86a8.75,8.75,0,0,1,8.75-8.75h35.88v54.11a2.4,2.4,0,0,0,1.27,2.11,2.37,2.37,0,0,0,2.45-.14l14.69-9.93,14.69,9.93a2.32,2.32,0,0,0,1.34.41,2.46,2.46,0,0,0,1.12-.27,2.4,2.4,0,0,0,1.27-2.11V66.11h7.3a8.75,8.75,0,0,1,8.75,8.75Z"/></svg>