<svg id="Layer_1" data-name="Layer 1" xmlns="http://www.w3.org/2000/svg" viewBox="0 0 400 400"><defs><style>.cls-1{fill:#fff;}</style></defs><title>diary-icon</title><path class="cls-1" d="M318.89,34.25H110.57a35.25,35.25,0,0,0-35.21,35.2V110H52.12a6.22,6.22,0,0,0,0,12.43H75.36v43.41H52.12a6.21,6.21,0,0,0,0,12.42H75.36v43.42H52.12a6.21,6.21,0,0,0,0,12.42H75.36v43.42H52.12a6.21,6.21,0,1,0,0,12.42H75.36V335c0,16.94,15.8,30.71,35.21,30.71H318.89a35.24,35.24,0,0,0,35.2-35.2V69.45A35.24,35.24,0,0,0,318.89,34.25ZM216.41,46.67h71V175.85l-32-21.67a6.22,6.22,0,0,0-7,0l-32,21.67ZM341.67,330.55a22.81,22.81,0,0,1-22.78,22.78H110.57c-12.35,0-22.78-8.38-22.78-18.29V290H111a6.21,6.21,0,0,0,0-12.42H87.79V234.13H111a6.21,6.21,0,0,0,0-12.42H87.79V178.29H111a6.21,6.21,0,0,0,0-12.42H87.79V122.46H111A6.22,6.22,0,0,0,111,110H87.79V69.45a22.81,22.81,0,0,1,22.78-22.78H204V187.55a6.21,6.21,0,0,0,9.69,5.15l38.25-25.88,38.24,25.88a6.22,6.22,0,0,0,9.7-5.15V46.67h19a22.81,22.81,0,0,1,22.78,22.78Z"/></svg>