<svg id="Layer_1" data-name="Layer 1" xmlns="http://www.w3.org/2000/svg" viewBox="0 0 250 250"><defs><style>.cls-1{fill:#1993aa;}.cls-2{fill:#fff;}</style></defs><title>JS</title><circle class="cls-1" cx="125" cy="125" r="106.69"/><path class="cls-2" d="M69.82,134.62l11.63-2.38v6.56c0,8.26,4.68,11.94,10.84,11.94,6.37,0,10.35-4.28,10.35-11.44V90h11.93v49c0,12.53-8.75,23-22.17,23-13.83,0-22.58-9-22.58-22.78Z"/><path class="cls-2" d="M166.77,109.86C166.08,105.48,162.39,99,153,99c-7.17,0-12.14,4.77-12.14,10.14,0,4.48,2.79,7.86,8.26,9l10.14,2.09c12.43,2.49,19.1,10.35,19.1,20.29,0,10.94-8.86,21.39-25,21.39-17.91,0-26.17-11.54-27.25-21.69l11.13-3.18c.7,7.36,6,14.12,16.12,14.12,8.45,0,12.82-4.27,12.82-9.74,0-4.57-3.38-8.26-9.45-9.55l-9.94-2.09c-10.74-2.19-17.9-9.25-17.9-19.79,0-11.84,10.84-21.59,24-21.59,16.6,0,23.07,10.15,24.66,18Z"/></svg>