<svg id="Layer_1" data-name="Layer 1" xmlns="http://www.w3.org/2000/svg" viewBox="0 0 250 250"><defs><style>.cls-1{fill:#1993aa;}.cls-2{fill:#fff;}</style></defs><title>notes-icon-03</title><circle class="cls-1" cx="125" cy="125" r="106.69"/><path class="cls-2" d="M161.27,60.76l-75.08.36a10.49,10.49,0,0,0-4.1.85,10.55,10.55,0,0,0-6.39,9.75l.51,107a10.41,10.41,0,0,0,.85,4.1,10.62,10.62,0,0,0,2.27,3.35,10.73,10.73,0,0,0,3.37,2.24,10.45,10.45,0,0,0,4.1.81l90.48-.44a10.31,10.31,0,0,0,4.1-.85,10.53,10.53,0,0,0,5.58-5.63,10.53,10.53,0,0,0,.81-4.11l-.42-87.3Zm.28,7.49L180.44,90.1l-18.78.09Zm21.09,112.27a6.07,6.07,0,0,1-1.25,1.87,5.82,5.82,0,0,1-4.14,1.74l-90.47.43a5.56,5.56,0,0,1-2.28-.45,5.87,5.87,0,0,1-1.87-1.24,5.87,5.87,0,0,1-1.73-4.14l-.52-107a5.91,5.91,0,0,1,.45-2.28,5.88,5.88,0,0,1,3.1-3.13,5.74,5.74,0,0,1,2.28-.47l70.64-.34L157,92.55a2.34,2.34,0,0,0,2.36,2.33l23.34-.11.4,83.47A5.72,5.72,0,0,1,182.64,180.52Z"/><rect class="cls-2" x="98.58" y="107.38" width="66.15" height="4.69" transform="translate(-0.53 0.63) rotate(-0.28)"/><rect class="cls-2" x="98.66" y="124.05" width="66.15" height="4.69" transform="translate(-0.61 0.63) rotate(-0.28)"/><rect class="cls-2" x="98.74" y="140.71" width="66.15" height="4.69" transform="translate(-0.69 0.64) rotate(-0.28)"/><rect class="cls-2" x="98.82" y="157.41" width="47.93" height="4.69" transform="translate(-0.77 0.59) rotate(-0.28)"/></svg>