<svg id="Layer_1" data-name="Layer 1" xmlns="http://www.w3.org/2000/svg" viewBox="0 0 400 400"><defs><style>.cls-1{fill:#fff;}</style></defs><title>notes-icon</title><path class="cls-1" d="M279.51,29.34H79.5A28.08,28.08,0,0,0,51.41,57.43V342.57a28,28,0,0,0,8.23,19.86,28,28,0,0,0,19.86,8.23h241a28.08,28.08,0,0,0,28.09-28.09V110Zm.65,20,50,58.43h-50Zm54.73,299.34a15.73,15.73,0,0,1-8.31,8.31,15.57,15.57,0,0,1-6.08,1.22H79.5a15.6,15.6,0,0,1-15.61-15.6V57.43a15.35,15.35,0,0,1,1.23-6.07A15.55,15.55,0,0,1,79.5,41.83H267.68V114a6.24,6.24,0,0,0,6.24,6.24h62.19V342.57A15.52,15.52,0,0,1,334.89,348.64Z"/><rect class="cls-1" x="111.89" y="153.16" width="176.22" height="12.48"/><rect class="cls-1" x="111.89" y="197.55" width="176.22" height="12.48"/><rect class="cls-1" x="111.89" y="241.93" width="176.22" height="12.48"/><rect class="cls-1" x="111.89" y="286.32" width="127.67" height="12.48"/></svg>