<svg id="Layer_1" data-name="Layer 1" xmlns="http://www.w3.org/2000/svg" viewBox="0 0 250 250"><defs><style>.cls-1{fill:#39a8e0;}.cls-2{fill:#fff;}</style></defs><title>SH</title><circle class="cls-1" cx="125" cy="125" r="106.69"/><path class="cls-2" d="M101.75,109.86C101.05,105.48,97.37,99,87.93,99c-7.17,0-12.14,4.77-12.14,10.14,0,4.48,2.79,7.86,8.26,9l10.14,2.09c12.43,2.49,19.09,10.35,19.09,20.29,0,10.94-8.85,21.39-25,21.39-17.9,0-26.16-11.54-27.25-21.69l11.14-3.18c.7,7.36,6,14.13,16.11,14.13,8.46,0,12.83-4.28,12.83-9.75,0-4.58-3.38-8.26-9.45-9.55l-9.94-2.09c-10.75-2.19-17.9-9.25-17.9-19.79,0-11.84,10.84-21.59,24-21.59,16.61,0,23.08,10.15,24.67,18Z"/><path class="cls-2" d="M171.45,160.48V130.35H138.33v30.13H126.4V90h11.93v29.14h33.12V90h12v70.51Z"/></svg>