<svg id="Layer_1" data-name="Layer 1" xmlns="http://www.w3.org/2000/svg" viewBox="0 0 250 250"><defs><style>.cls-1{fill:#e16ba5;}.cls-2{fill:#fff;}</style></defs><title>SP</title><circle class="cls-1" cx="125" cy="125" r="106.69"/><path class="cls-2" d="M110.35,109.86C109.65,105.48,106,99,96.52,99c-7.16,0-12.13,4.77-12.13,10.14,0,4.48,2.79,7.86,8.26,9l10.14,2.09c12.43,2.49,19.09,10.35,19.09,20.29,0,10.94-8.85,21.38-25,21.38-17.9,0-26.16-11.53-27.25-21.68l11.14-3.18c.7,7.36,6,14.13,16.11,14.13,8.46,0,12.83-4.29,12.83-9.76,0-4.57-3.38-8.25-9.45-9.54l-9.94-2.09c-10.75-2.19-17.91-9.25-17.91-19.79,0-11.84,10.85-21.59,24-21.59,16.61,0,23.08,10.15,24.67,18Z"/><path class="cls-2" d="M146.93,132.93v27.55H135V90h26.15c13.53,0,22.48,9.15,22.48,21.48s-8.95,21.48-22.48,21.48Zm12.43-10.54c7.56,0,12.13-4.18,12.13-10.84s-4.57-11-12.13-11H146.93v21.88Z"/></svg>